<?xml version="1.0" encoding="utf-8"?>
<svg version="1.1" id="Layer_1"
xmlns="http://www.w3.org/2000/svg"
xmlns:xlink="http://www.w3.org/1999/xlink"
width="9px" height="9px"
xml:space="preserve">
<g id="PathID_1" transform="matrix(1, 0, 0, 1, 4.5, 4.5)">
<path style="fill:#0080C0;fill-opacity:1" d="M-4 0Q-4 -1.65 -2.85 -2.85Q-1.65 -4 0 -4Q1.65 -4 2.8 -2.85Q4 -1.65 4 0Q4 1.65 2.8 2.8Q1.65 4 0 4Q-1.65 4 -2.85 2.8Q-4 1.65 -4 0" />
<path style="fill:none;stroke-width:1;stroke-linecap:round;stroke-linejoin:round;stroke-miterlimit:3;stroke:#000000;stroke-opacity:1" d="M-4 0Q-4 -1.65 -2.85 -2.85Q-1.65 -4 0 -4Q1.65 -4 2.8 -2.85Q4 -1.65 4 0Q4 1.65 2.8 2.8Q1.65 4 0 4Q-1.65 4 -2.85 2.8Q-4 1.65 -4 0z" />
</g>
</svg>
